<svg xmlns="http://www.w3.org/2000/svg" version="1.1" xmlns:xlink="http://www.w3.org/1999/xlink" xmlns:svgjs="http://svgjs.dev/svgjs" width="1000" height="1125" viewBox="0 0 1000 1125"><g transform="matrix(1,0,0,1,0,0)"><svg viewBox="0 0 320 360" data-background-color="#ffffff" preserveAspectRatio="xMidYMid meet" height="1125" width="1000" xmlns="http://www.w3.org/2000/svg" xmlns:xlink="http://www.w3.org/1999/xlink"><g id="tight-bounds" transform="matrix(1,0,0,1,0,0)"><svg viewBox="0 0 320 360" height="360" width="320"><rect width="320" height="360" fill="url(#4efd0450-f0b8-4669-821e-b86f2d7c6d30)" mask="url(&quot;#6c3b2010-0a0a-4836-b499-f76063da372d&quot;)" data-fill-palette-color="primary"></rect><g><svg></svg></g><g><svg viewBox="0 0 320 360" height="360" width="320"><g><path d="M219.58 41.008c0.707 0 6.365 2.829 9.547 3.89-1.061 0.354-3.536-0.707-6.365-1.768 0.707 0 2.122 0.354 3.536 1.06-0.707-0.707-6.011-2.475-6.718-3.182M166.895 30.047c1.061-0.354 13.436 1.414 19.094 1.768 0.354-0.354-0.707-0.354-2.122-0.707 1.768-0.354 5.304 0.707 7.779 1.06-7.425 0.354-15.558-1.768-22.629-1.06-2.475 0-0.707-0.707-2.122-1.061M156.641 30.047c6.365 0 11.315 0 2.121 0.707-1.061-0.354-2.475-0.354-2.121-0.707M256.707 59.395c0.707 0 3.536 3.182 4.95 4.243-0.354 0.354-3.182-2.475-4.596-3.536 0.354 0.354 0 0-0.354-0.707M249.635 54.798c-2.829-2.475-3.889-2.475-4.243-3.889 2.475 1.414 4.243 2.829 4.243 3.889M204.022 32.522c0.354-0.354 1.061 0.354 2.829 0.707-2.122-0.354-1.768 0-1.061 0.707-2.475-0.354-3.182-0.707-2.475-1.414 1.414 0.707 1.768 0.354 0.707 0M103.602 36.765c0-0.354 1.414-1.061 2.475-1.414-1.061 0.707-0.707 1.061 1.061 0.353 0 0.354-2.122 1.061-3.536 1.768 0.707-0.354 1.414-1.414 0-0.707M211.094 28.986c-1.061 0.354-4.95-1.768-8.84-2.475-2.122-0.707 8.486 1.768 8.84 2.475M2.475 203.66c2.122 8.84 0.707 8.486 0 0M2.829 150.621c0.354-1.414 0.707-5.304 1.06-4.95-1.061 8.486-2.829 12.376-3.182 18.74 1.061-5.657-0.354 3.182-0.707 5.304 0.354 2.829 0.354-1.768 1.061-1.06 0.707 1.061-1.414 15.912-0.707 7.779-0.707 7.425 0 15.558 1.414 17.679-1.768 11.315 7.072 36.773 8.84 42.077 0.354 0.354 0-1.768 0.707-0.353 0.707 4.597 3.889 7.779 4.95 12.729 1.061 1.414 5.304 9.193 6.011 10.962 1.414 2.829 2.122 2.475 3.536 5.303 4.243 8.133 10.961 15.912 17.326 23.337 20.508 24.044 51.978 43.845 86.984 50.918 35.006 7.425 71.779 2.122 100.419-11.669 1.768-1.061 1.414-1.414 3.536-2.122 9.901-3.182 21.923-13.436 28.641-17.326 3.182-3.536 11.669-9.547 12.73-13.082 6.011-4.95 12.022-13.083 15.204-18.387 1.768-2.829 3.182-2.829 3.889-4.597-0.354 0 5.657-7.425 7.426-11.668-0.707 0-1.768 2.122-1.768 0 12.729-24.398 19.801-57.282 15.911-79.912 0.707 27.934-6.365 59.05-19.801 78.851-6.011 12.729-18.387 26.519-29.701 36.42-1.768 1.768-3.536 3.889-5.658 5.304-6.718 5.657-14.144 10.254-21.922 14.497-18.387 10.254-38.895 19.094-62.94 19.447 41.37-3.536 78.497-24.398 99.006-49.856-15.558 15.204-22.276 21.215-39.602 30.055-1.414 2.475-13.083 7.425-20.862 9.547 4.597-2.122 14.144-5.657 17.326-8.486-25.812 12.376-54.453 19.448-81.326 15.558 10.254 0 24.751 0.354 38.541-2.121 2.122-0.707 3.182-1.414 5.658-1.768 26.873-6.011 52.685-19.094 71.072-37.481-10.608 9.547-26.519 20.862-36.774 24.398 9.547-5.304 26.873-15.558 32.53-23.337-11.315 11.315-32.53 22.63-45.966 27.58-2.122 0.354 1.414-1.414-2.122 0-4.243 1.061-2.475 1.061-3.536 1.768-16.265 4.597-35.006 8.486-50.563 7.072-2.829-0.354-3.889-1.061-6.365-1.061-2.829-0.354-5.304-0.354-8.486-0.354-12.376-1.414-25.812-6.365-35.713-10.607-5.304-2.475-10.608-4.243-15.912-7.426-4.243-2.475-7.779-5.304-11.314-8.132-13.436-9.901-24.751-19.801-35.36-33.945-19.094-26.519-28.994-59.757-27.58-92.641 1.414-32.884 14.497-65.061 35.359-88.752-1.061 1.061 1.414-2.475 3.536-4.596 0 0.707-0.354 1.768 2.122-0.707 2.122-2.475-0.707-0.707 0.353-2.122 21.923-24.044 60.111-43.492 99.36-44.199 1.414-1.061 3.889-2.475 6.718-1.768 0 0.354-1.768 0.354-1.768 0.354 3.889-0.354 7.425-0.354 9.193 0.353 0.354-0.354-1.414-0.707 0-0.707 2.475 0.707 3.182 0 4.597 0.707-1.061 0-2.122 0-2.829 0.354 8.84 0 14.497 2.122 23.337 2.829-4.597-1.061-5.657-1.061-9.193-2.122 3.889 0.707 5.657 1.414 7.425 1.061-0.707 0-0.354-1.061 0.354-0.707 7.072 1.768 7.779 2.475 15.204 4.95 0.707-0.707-3.182-1.061-4.243-2.122 7.072 2.475 13.436 4.243 17.68 7.072-1.414-1.061-5.657-2.475-8.84-3.889-0.354 0.354 1.061 0.707 1.414 1.414-3.536-1.768-8.486-3.536-13.436-4.243 4.243 1.061 7.072 2.475 8.84 3.182-3.889-0.707-8.84-3.182-14.498-4.243 9.193 2.829 26.519 9.193 37.127 14.851-3.889-2.475-8.486-4.243-10.961-5.657 2.122 0.354 4.597 1.768 4.597 1.06 2.475 1.061 5.657 3.536 7.425 3.89-3.182-2.122-9.547-5.304-11.668-6.365 26.519 12.022 50.21 32.177 65.414 57.989 1.414 2.475 3.536 8.133 5.304 8.84-0.354-1.768-1.768-2.829-3.182-5.657 0.707 0 0.707-1.061 0-2.122-1.414-1.768 0 1.414-1.415-0.354-6.365-11.669-14.144-21.923-26.165-33.237 6.718 6.365 1.768 1.768 0.353-0.354 9.193 8.133 19.801 21.923 24.398 28.995-0.707-1.061-1.061-1.768-0.707-1.768 8.486 14.497 13.79 27.58 19.094 46.32 0.354 0.354 0-1.414 0.707-0.353 3.536 14.851 4.597 27.227 4.243 38.541 2.829-19.094-3.536-48.796-14.851-72.133-1.414-2.829-1.414-0.707-2.829-3.889 0-1.061-1.061-3.182-1.768-4.597-14.144-23.337-31.47-39.956-51.978-53.038 1.414 0.707 4.243 2.829 4.244 2.475-38.188-25.105-82.387-28.641-118.807-20.862-2.475 1.061-3.536 2.122-6.365 3.536 5.304-1.768 8.486-2.122 13.437-3.183 1.061-1.061-4.597 0.354-2.122-0.707 0.354 0.354 4.95-0.707 6.011-0.353 0 0.354-1.414 0.707-1.768 1.06 11.669-2.475 23.691-2.829 33.945-2.121-6.011 0.354-16.972-0.707-20.508 1.061 3.536-0.354 8.486-0.707 11.668-0.354-4.243 0-12.022 0.354-15.558 0.707-0.354-0.354 5.657-1.061 1.768-1.06-1.768 0.354-4.597 0.354-5.657 1.414-30.409 2.829-60.111 18.74-80.973 37.481-4.243 3.536-9.193 7.425-12.375 11.314-7.779 8.84-12.729 17.68-18.387 25.459 3.536-7.425 11.315-18.74 20.508-28.287 9.193-9.547 19.094-17.68 24.398-21.923 0 1.414 8.486-5.304 11.669-7.425-2.122 1.768 1.414-0.707 2.121-0.354 11.315-6.718 20.508-9.193 30.763-13.083-2.475 0.707-4.597 1.414-4.951 1.061 2.475-0.707 3.889-1.414 3.536-1.768-9.901 2.829-25.459 9.547-37.834 16.972 22.276-15.204 50.564-24.398 78.497-24.751 27.934-0.707 55.16 6.365 76.729 17.68 14.497 6.365 28.287 18.033 39.249 29.348 3.182 2.829 0.707-0.707 5.304 4.243-1.414-0.707-2.475-1.414-0.707 0.707 2.829 3.182-0.707-2.475 3.889 3.182-0.354 0-1.768-1.768-1.768-1.061 12.376 10.961 21.923 30.762 27.58 43.846-1.414-5.304-4.95-12.729-7.779-18.033 8.486 15.558 11.315 24.751 14.851 38.541 1.414 1.061-0.707-4.95 0.707-2.121 0.354 2.122 0.707 8.84 2.122 9.9-1.061-6.718-2.829-14.851-4.243-16.265 1.061 0.707-1.768-8.133-3.536-10.254-0.707-5.657-5.657-15.558-9.901-22.984-15.204-29.702-42.431-54.099-72.839-67.536 0-0.707-1.768-1.414-2.476-2.121-30.055-12.729-66.122-16.265-100.773-8.133-35.006 8.486-67.889 28.641-91.227 57.636 1.061-3.536 9.901-10.254 10.255-13.083-10.254 10.961-21.215 25.459-28.641 41.016-7.779 15.558-12.022 31.47-13.79 43.138" fill="#374151" fill-rule="nonzero" stroke="none" stroke-width="1" stroke-linecap="butt" stroke-linejoin="miter" stroke-miterlimit="10" stroke-dasharray="" stroke-dashoffset="0" font-family="none" font-weight="none" font-size="none" text-anchor="none" style="mix-blend-mode: normal" data-fill-palette-color="tertiary"></path></g><g transform="matrix(1,0,0,1,48,99.84313725490196)"><svg viewBox="0 0 224 160.31372549019608" height="160.31372549019608" width="224"><g><svg viewBox="0 0 224 160.31372549019608" height="160.31372549019608" width="224"><g><svg viewBox="0 0 224 160.31372549019608" height="160.31372549019608" width="224"><g><svg viewBox="0 0 224 160.31372549019608" height="160.31372549019608" width="224"><g id="textblocktransform"><svg viewBox="0 0 224 160.31372549019608" height="160.31372549019608" width="224" id="textblock"><g><svg viewBox="0 0 224 160.31372549019608" height="160.31372549019608" width="224"><g transform="matrix(1,0,0,1,0,0)"><svg width="224" viewBox="-7.23 -51.37 99.61 71.29000000000002" height="160.31372549019608" data-palette-color="url(#4efd0450-f0b8-4669-821e-b86f2d7c6d30)"></svg></g></svg></g></svg></g></svg></g></svg></g></svg></g></svg></g></svg></g><defs><linearGradient x1="0" x2="1" y1="0.548" y2="0.55" id="4efd0450-f0b8-4669-821e-b86f2d7c6d30"><stop stop-color="#ff6cab" offset="0"></stop><stop stop-color="#7366ff" offset="1"></stop></linearGradient></defs><mask id="6c3b2010-0a0a-4836-b499-f76063da372d"><g id="SvgjsG1138"><svg viewBox="0 0 320 360" height="360" width="320"><g><svg></svg></g><g><svg viewBox="0 0 320 360" height="360" width="320"><g></g><g transform="matrix(1,0,0,1,48,99.84313725490196)"><svg viewBox="0 0 224 160.31372549019608" height="160.31372549019608" width="224"><g><svg viewBox="0 0 224 160.31372549019608" height="160.31372549019608" width="224"><g><svg viewBox="0 0 224 160.31372549019608" height="160.31372549019608" width="224"><g><svg viewBox="0 0 224 160.31372549019608" height="160.31372549019608" width="224"><g id="SvgjsG1137"><svg viewBox="0 0 224 160.31372549019608" height="160.31372549019608" width="224" id="SvgjsSvg1136"><g><svg viewBox="0 0 224 160.31372549019608" height="160.31372549019608" width="224"><g transform="matrix(1,0,0,1,0,0)"><svg width="224" viewBox="-7.23 -51.37 99.61 71.29000000000002" height="160.31372549019608" data-palette-color="url(#4efd0450-f0b8-4669-821e-b86f2d7c6d30)"><path d="M39.89 11.62L39.89 11.62Q39.75 12.45 39.23 12.82 38.72 13.18 38.28 13.87L38.28 13.87 38.09 13.87Q37.6 13.87 37.13 13.96 36.67 14.06 36.18 14.21L36.18 14.21Q35.94 14.11 35.6 14.06 35.25 14.01 35.16 13.72L35.16 13.72Q34.77 13.92 34.08 13.92L34.08 13.92Q32.96 13.92 31.96 13.28 30.96 12.65 29.88 12.3L29.88 12.3Q29.59 11.72 29.17 11.25 28.76 10.79 28.34 10.35 27.93 9.91 27.54 9.42 27.15 8.94 26.9 8.25L26.9 8.25Q26.81 7.96 26.66 7.91 26.51 7.86 26.22 7.91L26.22 7.91Q26.27 7.37 26.1 6.98 25.93 6.59 25.34 6.49L25.34 6.49Q25.34 5.86 25.15 5.42 24.95 4.98 24.68 4.66 24.41 4.35 24.1 4 23.78 3.66 23.58 3.17L23.58 3.17Q23.14 3.08 22.73 3.05 22.31 3.03 21.83 3.03L21.83 3.03Q19.48 3.03 17.29 3.91L17.29 3.91Q17.04 4 16.77 4.15 16.5 4.3 16.26 4.39L16.26 4.39Q16.16 4.39 16.09 4.42 16.02 4.44 15.92 4.44L15.92 4.44Q15.58 4.44 15.28 4.32 14.99 4.2 14.65 4.2L14.65 4.2Q14.5 4.2 14.33 4.27 14.16 4.35 14.01 4.39L14.01 4.39Q13.28 4.64 12.65 4.69L12.65 4.69Q10.64 5.08 8.42 5.27 6.2 5.47 4.35 6.3L4.35 6.3Q3.96 6.49 3.86 6.91 3.76 7.32 3.81 7.71L3.81 7.71Q3.27 8.11 3 8.74 2.73 9.38 2.51 10.08 2.29 10.79 2.05 11.47 1.81 12.16 1.37 12.65L1.37 12.65Q1.51 12.94 1.51 13.28L1.51 13.28Q1.51 14.01 1.03 14.75 0.54 15.48 0.29 16.16L0.29 16.16Q0.05 16.85-0.1 17.5-0.24 18.16-0.54 18.7-0.83 19.24-1.34 19.58-1.86 19.92-2.78 19.92L-2.78 19.92Q-3.66 19.92-4.3 19.58-4.93 19.24-5.32 18.7-5.71 18.16-5.96 17.43-6.2 16.7-6.35 15.97L-6.35 15.97Q-5.81 14.89-5.32 14.11-4.83 13.33-4.59 12.11L-4.59 12.11Q-3.71 11.47-3.3 10.57-2.88 9.67-2.83 8.59L-2.83 8.59Q-2.29 8.25-2.08 7.69-1.86 7.13-1.81 6.49L-1.81 6.49Q-2.98 6.4-4.27 6.3-5.57 6.2-6.69 5.81L-6.69 5.81Q-6.69 5.71-6.67 5.62-6.64 5.52-6.64 5.42L-6.64 5.42Q-6.64 4.79-6.93 4.27-7.23 3.76-7.23 3.17L-7.23 3.17-7.23 2.78Q-6.84 2.39-6.52 1.98-6.2 1.56-5.86 1.22-5.52 0.88-5.08 0.66-4.64 0.44-3.96 0.44L-3.96 0.44Q-3.03 0.44-2.15 0.56-1.27 0.68-0.34 0.68L-0.34 0.68Q0.29 0.68 0.98 0.54L0.98 0.54Q2.05-1.66 2.88-3.93 3.71-6.2 4.15-8.54L4.15-8.54Q4.49-9.03 4.79-9.69 5.08-10.35 5.25-11.08 5.42-11.82 5.49-12.52 5.57-13.23 5.57-13.82L5.57-13.82Q6.1-14.45 6.32-15.38 6.54-16.31 6.69-17.31 6.84-18.31 7.01-19.29 7.18-20.26 7.67-21L7.67-21 7.67-21.44Q7.71-22.17 7.52-22.75L7.52-22.75Q7.76-22.85 7.81-23.19 7.86-23.54 8.01-23.78L8.01-23.78Q8.06-26.03 8.5-28.2 8.94-30.37 9.23-32.57L9.23-32.57 9.23-32.71Q9.23-32.96 9.06-32.98 8.89-33.01 8.89-33.25L8.89-33.25Q8.89-33.69 9.01-34.42 9.13-35.16 9.18-35.64L9.18-35.64Q9.47-38.28 9.47-40.87L9.47-40.87Q9.47-43.07 9.33-45.21 9.18-47.36 9.03-49.56L9.03-49.56 9.42-50.15Q9.62-50.44 9.77-50.73L9.77-50.73Q10.25-50.93 10.57-51.15 10.89-51.37 11.43-51.37L11.43-51.37Q11.57-51.37 11.67-51.34 11.77-51.32 11.87-51.32L11.87-51.32Q12.16-51.12 12.33-50.78 12.5-50.44 12.67-50.15 12.84-49.85 13.13-49.66 13.43-49.46 13.96-49.56L13.96-49.56Q14.21-48.19 15.33-48.14L15.33-48.14Q15.58-47.46 15.94-46.78 16.31-46.09 16.94-45.7L16.94-45.7Q16.89-45.51 16.89-45.17L16.89-45.17Q16.89-44.48 17.21-43.85 17.53-43.21 18.02-42.68L18.02-42.68 18.02-42.58Q18.02-42.04 17.63-41.85L17.63-41.85Q18.07-41.36 18.26-40.67 18.46-39.99 18.6-39.28 18.75-38.57 18.97-37.94 19.19-37.3 19.73-36.96L19.73-36.96 19.73-36.82Q19.73-36.57 19.56-36.52 19.38-36.47 19.38-36.23L19.38-36.23Q20.26-34.62 20.61-32.71 20.95-30.81 21.48-29.05L21.48-29.05Q21.68-28.86 21.95-28.81 22.22-28.76 22.36-28.56L22.36-28.56Q22.07-28.37 22.07-27.88 22.07-27.39 21.83-27.15L21.83-27.15Q22.22-26.81 22.19-26.15 22.17-25.49 22.56-25.2L22.56-25.2 22.56-25Q22.56-24.8 22.46-24.68 22.36-24.56 22.36-24.37L22.36-24.37 22.36-24.17Q22.75-22.46 22.97-20.75 23.19-19.04 23.44-17.33 23.68-15.63 23.97-13.94 24.27-12.26 24.8-10.64L24.8-10.64Q24.85-10.6 24.85-10.5L24.85-10.5Q24.85-10.25 24.66-10.23 24.46-10.21 24.46-9.96L24.46-9.96Q24.46-9.72 24.63-9.4 24.8-9.08 25-8.89L25-8.89Q24.95-8.69 24.95-8.3L24.95-8.3Q24.95-7.57 25.22-6.88 25.49-6.2 25.81-5.54 26.12-4.88 26.37-4.15 26.61-3.42 26.56-2.59L26.56-2.59Q26.86-2.15 27.32-1.86 27.78-1.56 28.27-1.32 28.76-1.07 29.17-0.73 29.59-0.39 29.74 0.2L29.74 0.2Q29.35 0.54 29.2 1.05 29.05 1.56 28.66 1.95L28.66 1.95Q29 2.78 29.47 3.49 29.93 4.2 30.42 4.88L30.42 4.88 31.45 6.25Q31.98 6.93 32.37 7.71L32.37 7.71Q32.91 7.71 33.15 8.01 33.4 8.3 33.94 8.25L33.94 8.25Q34.13 8.64 34.08 9.13L34.08 9.13Q35.06 8.79 36.04 8.79L36.04 8.79Q36.57 8.79 37.04 8.84 37.5 8.89 37.99 8.89L37.99 8.89Q38.57 8.89 39.01 8.74L39.01 8.74Q39.21 9.03 39.31 9.4 39.4 9.77 39.45 10.16L39.45 10.16 39.6 10.94Q39.7 11.33 39.89 11.62ZM21.48-1.9L21.48-1.9Q20.8-5.27 20.09-8.62 19.38-11.96 18.85-15.38L18.85-15.38Q18.55-17.19 18.41-18.99 18.26-20.8 18.04-22.58 17.82-24.37 17.46-26.12 17.09-27.88 16.41-29.59L16.41-29.59 16.41-29.69Q16.41-29.83 16.5-29.93 16.6-30.03 16.6-30.27L16.6-30.27 16.6-30.47Q15.97-30.91 15.72-31.71 15.48-32.52 15.31-33.42 15.14-34.33 14.87-35.18 14.6-36.04 13.96-36.62L13.96-36.62Q13.72-33.79 13.45-30.98 13.18-28.17 13.09-25.34L13.09-25.34Q12.6-25.05 12.45-24.37 12.3-23.68 12.3-23.14L12.3-23.14Q12.3-22.75 12.35-22.34 12.4-21.92 12.55-21.48L12.55-21.48Q11.67-19.29 11.28-16.97 10.89-14.65 10.4-12.35L10.4-12.35Q10.35-12.21 10.23-11.69 10.11-11.18 9.96-10.64 9.81-10.11 9.72-9.69 9.62-9.28 9.62-9.23L9.62-9.23Q9.57-8.89 9.59-8.54 9.62-8.2 9.62-7.86L9.62-7.86 8.89-7.13Q8.69-5.27 8.18-3.54 7.67-1.81 7.13 0L7.13 0Q7.47 0.05 7.79 0.07 8.11 0.1 8.45 0.1L8.45 0.1Q10.01 0.1 11.6-0.12 13.18-0.34 14.75-0.54L14.75-0.54Q15.28-0.63 15.87-0.71 16.46-0.78 16.99-0.78L16.99-0.78Q17.24-0.83 17.58-0.81 17.92-0.78 18.16-0.83L18.16-0.83Q18.55-0.93 18.68-1.15 18.8-1.37 19.19-1.42L19.19-1.42Q19.48-1.27 19.87-1.27L19.87-1.27Q20.31-1.27 20.7-1.46 21.09-1.66 21.48-1.9ZM92.38-4.25L92.38-4.25Q92.38-2 90.28-1.51L90.28-1.51Q89.69-2.05 88.57-2.12 87.45-2.2 86.62-2.2L86.62-2.2Q86.23-2.2 86.03-1.95 85.84-1.71 85.59-1.71L85.59-1.71Q84.37-1.71 83.18-1.81 81.98-1.9 80.76-1.9L80.76-1.9Q79.29-1.9 77.76-1.61 76.22-1.32 75.19-1.32L75.19-1.32Q74.9-1.32 74.73-1.46 74.56-1.61 74.36-1.71L74.36-1.71Q73.92-1.56 73.53-1.27 73.14-0.98 72.65-0.98L72.65-0.98Q72.46-0.98 72.26-1.12 72.07-1.27 71.92-1.37L71.92-1.37Q71.53-1.27 71.29-1.03 71.04-0.78 70.7-0.63L70.7-0.63Q70.36-0.83 70.02-0.83L70.02-0.83Q69.63-0.83 69.21-0.66 68.8-0.49 68.41-0.29L68.41-0.29Q68.02-0.24 67.6-0.27 67.19-0.29 66.79-0.29L66.79-0.29Q66.31-0.29 65.82-0.24 65.33-0.2 64.94 0.05L64.94 0.05Q62.74 0.05 60.62 0.49 58.49 0.93 56.44 1.61L56.44 1.61 53.17 2.69Q52.93 2.69 52.81 2.59 52.68 2.49 52.54 2.49L52.54 2.49 52.29 2.49Q51.71 2.98 50.8 3.27 49.9 3.56 48.87 3.76 47.85 3.96 46.85 4.15 45.85 4.35 45.11 4.59L45.11 4.59Q44.63 4.79 44.26 5.08 43.89 5.37 43.36 5.52L43.36 5.52Q43.11 5.57 42.87 5.52 42.62 5.47 42.38 5.47L42.38 5.47Q41.84 5.47 41.06 5.79 40.28 6.1 39.28 6.47 38.28 6.84 37.16 7.15 36.03 7.47 34.86 7.47L34.86 7.47Q34.08 7.47 32.93 7.32 31.78 7.18 30.71 6.79 29.64 6.4 28.88 5.71 28.12 5.03 28.12 3.91L28.12 3.91Q28.12 3.13 28.42 2.81 28.71 2.49 28.71 1.9L28.71 1.9Q28.71 1.76 28.64 1.59 28.56 1.42 28.46 1.32L28.46 1.32Q29.44 0.24 30.22-0.95 31-2.15 31.64-3.47L31.64-3.47Q32.37-4.05 33.01-4.81 33.64-5.57 34.27-6.3 34.91-7.03 35.62-7.71 36.33-8.4 37.2-8.84L37.2-8.84Q37.45-9.47 37.94-10.11L37.94-10.11Q38.62-10.35 39.13-10.79 39.65-11.23 40.13-11.74 40.62-12.26 41.14-12.7 41.65-13.13 42.33-13.38L42.33-13.38Q42.67-14.06 43.21-14.62 43.75-15.19 44.28-15.72L44.28-15.72 45.36-16.8Q45.9-17.33 46.34-17.97L46.34-17.97Q46.63-18.07 46.73-18.24 46.82-18.41 47.21-18.31L47.21-18.31 47.21-18.99Q47.85-19.29 48.31-19.73 48.78-20.17 49.22-20.65 49.66-21.14 50.14-21.61 50.63-22.07 51.22-22.36L51.22-22.36 51.22-23.24Q51.71-23.34 52.1-23.66 52.49-23.97 52.98-24.12L52.98-24.12Q52.93-25.05 53.42-25.46 53.9-25.88 54.59-26.42L54.59-26.42Q55.03-27.54 55.86-28.37L55.86-28.37 57.52-30.03Q58.15-31.4 58.96-32.59 59.76-33.79 60.35-35.16L60.35-35.16Q60.79-35.4 61.13-35.79 61.47-36.18 61.77-36.6 62.06-37.01 62.4-37.4 62.74-37.79 63.18-38.09L63.18-38.09 63.13-38.33Q63.13-38.67 63.38-38.92 63.62-39.16 63.62-39.4L63.62-39.4Q63.62-39.5 63.52-39.7L63.52-39.7 63.03-39.7Q61.91-39.7 60.54-39.45 59.18-39.21 58.25-38.67L58.25-38.67 57.96-38.67Q56.88-38.67 55.83-38.4 54.78-38.13 53.71-37.84 52.63-37.55 51.58-37.35 50.53-37.16 49.46-37.26L49.46-37.26Q48.83-36.96 48.12-36.79 47.41-36.62 46.87-36.18L46.87-36.18Q45.7-36.04 44.21-35.72 42.72-35.4 41.21-35.08 39.69-34.77 38.28-34.5 36.86-34.23 35.84-34.23L35.84-34.23Q35.15-34.23 34.54-34.52 33.93-34.81 33.49-35.3 33.05-35.79 32.79-36.43 32.52-37.06 32.52-37.7L32.52-37.7Q32.52-38.43 32.86-39.36L32.86-39.36Q33.2-39.7 33.62-39.92 34.03-40.14 34.27-40.53L34.27-40.53Q34.71-40.43 35.2-40.31 35.69-40.19 36.18-40.19L36.18-40.19Q36.67-40.19 37.06-40.38L37.06-40.38Q37.45-40.43 37.57-40.11 37.69-39.79 37.94-39.7L37.94-39.7Q39.01-39.89 40.04-40.28 41.06-40.67 42.19-40.67L42.19-40.67Q42.77-40.67 43.36-40.53L43.36-40.53Q46.04-41.31 48.75-41.89 51.46-42.48 54.05-43.55L54.05-43.55 54.69-43.51Q55.37-43.41 56.03-43.58 56.69-43.75 57.37-43.7L57.37-43.7Q58.1-44.29 59.08-44.53 60.06-44.78 61.08-44.97 62.11-45.17 63.11-45.39 64.11-45.61 64.94-46.14L64.94-46.14 65.18-46.14Q66.11-46.14 67.01-46.44 67.92-46.73 68.77-47.09 69.63-47.46 70.46-47.78 71.29-48.1 72.12-48.1L72.12-48.1Q73.44-48.1 74.36-47.07L74.36-47.07Q73.83-46.68 73.48-46L73.48-46Q73.92-45.31 73.92-44.58L73.92-44.58Q73.92-43.85 73.73-43.09 73.53-42.33 73.48-41.6L73.48-41.6Q72.12-41.11 71.31-40.06 70.51-39.01 69.48-38.09L69.48-38.09 69.48-37.26Q68.85-36.87 68.43-36.3 68.02-35.74 67.19-35.64L67.19-35.64Q66.94-34.62 66.48-33.72 66.01-32.81 64.94-32.52L64.94-32.52Q64.84-32.18 64.65-31.93 64.45-31.69 64.26-31.47 64.06-31.25 63.94-30.96 63.82-30.66 63.86-30.22L63.86-30.22Q62.89-29.35 62.06-28.34 61.23-27.34 60.45-26.32 59.67-25.29 58.84-24.32 58.01-23.34 57.03-22.51L57.03-22.51Q56.93-21.97 56.59-21.63 56.25-21.29 56.15-20.75L56.15-20.75Q55.17-19.87 54.22-19.02 53.27-18.16 52.34-17.24L52.34-17.24Q51.9-16.8 51.51-16.28 51.12-15.77 50.73-15.33L50.73-15.33Q50.58-15.23 50.39-15.19 50.19-15.14 50.05-15.14L50.05-15.14Q49.51-14.26 48.83-13.55 48.14-12.84 47.41-12.16 46.68-11.47 45.99-10.77 45.31-10.06 44.77-9.18L44.77-9.18Q43.75-8.54 42.87-7.76 41.99-6.98 41.16-6.13 40.33-5.27 39.5-4.39 38.67-3.52 37.79-2.73L37.79-2.73Q37.69-2.2 37.42-1.78 37.16-1.37 36.91-0.95 36.67-0.54 36.45-0.07 36.23 0.39 36.18 0.98L36.18 0.98Q36.42 1.07 36.62 1.07L36.62 1.07 37.11 1.07Q38.08 1.07 38.99 0.68 39.89 0.29 40.72-0.1L40.72-0.1Q41.5-0.15 42.26-0.32 43.02-0.49 43.5-1.17L43.5-1.17Q43.75-1.07 43.89-1.07L43.89-1.07 44.24-1.07Q44.72-1.07 45.19-1.2 45.65-1.32 46.12-1.46 46.58-1.61 47.04-1.71 47.51-1.81 48.09-1.71L48.09-1.71Q48.83-2.15 49.63-2.37 50.44-2.59 51.29-2.78 52.15-2.98 52.93-3.22 53.71-3.47 54.39-3.96L54.39-3.96Q54.64-3.91 55.03-3.91L55.03-3.91Q55.56-3.91 56.17-4.05 56.78-4.2 57.32-4.44L57.32-4.44Q57.96-4.64 58.59-4.98L58.59-4.98Q58.88-4.98 58.98-4.88 59.08-4.79 59.23-4.79L59.23-4.79Q59.37-4.79 59.47-4.83L59.47-4.83Q60.1-5.03 60.64-5.25 61.18-5.47 61.81-5.66L61.81-5.66Q63.23-6.01 64.65-6.2 66.06-6.4 67.48-6.64L67.48-6.64Q68.11-6.74 68.72-6.93 69.33-7.13 69.97-7.28L69.97-7.28 70.21-7.28Q70.31-7.28 70.38-7.1 70.46-6.93 70.7-6.93L70.7-6.93Q71.19-6.93 71.77-7.08 72.36-7.23 72.9-7.32L72.9-7.32Q75.29-7.76 77.98-7.76L77.98-7.76Q78.95-7.76 79.9-7.62 80.86-7.47 81.83-7.47L81.83-7.47Q82.18-7.47 82.39-7.62 82.61-7.76 82.91-7.81L82.91-7.81 82.91-7.57Q82.91-7.13 83.1-6.93L83.1-6.93Q83.49-7.18 83.96-7.23 84.42-7.28 84.86-7.28L84.86-7.28Q86.03-7.28 87.18-7.1 88.33-6.93 89.45-6.93L89.45-6.93Q90.13-6.93 90.82-7.08L90.82-7.08Q90.92-6.74 91.28-6.67 91.65-6.59 91.89-6.4L91.89-6.4Q92.38-5.32 92.38-4.25Z" opacity="1" transform="matrix(1,0,0,1,0,0)" fill="white" class="undefined-text-0" id="SvgjsPath1135"></path></svg></g></svg></g></svg></g></svg></g></svg></g></svg></g></svg></g></svg></g><defs><linearGradient x1="0" x2="1" y1="0.548" y2="0.55" id="SvgjsLinearGradient1134"><stop stop-color="#ff6cab" offset="0"></stop><stop stop-color="#7366ff" offset="1"></stop></linearGradient><mask></mask></defs></svg></g></mask></svg><rect width="320" height="360" fill="none" stroke="none" visibility="hidden"></rect></g></svg></g></svg>